<svg width="841" height="551" viewBox="0 0 841 551" fill="none" xmlns="http://www.w3.org/2000/svg">
<path d="M198.5 73.5684H148.5V112.603H198.5V73.5684Z" fill="url(#paint0_linear_2_544)" fill-opacity="0.02"/>
<path d="M149.5 229.5H99.5V275.5H149.5V229.5Z" fill="url(#paint1_linear_2_544)" fill-opacity="0.02"/>
<path d="M247.5 412.5H197.5V458.578H247.5V412.5Z" fill="url(#paint2_linear_2_544)" fill-opacity="0.02"/>
<path d="M643.5 183.5H593.5V229.5H643.5V183.5Z" fill="url(#paint3_linear_2_544)" fill-opacity="0.02"/>
<path d="M396.5 229.5H346.5V275.5H396.5V229.5Z" fill="url(#paint4_linear_2_544)" fill-opacity="0.02"/>
<path d="M49.9118 0.5H0.5V46.3333M49.9118 0.5V46.3333M49.9118 0.5H99.3235M49.9118 46.3333H0.5M49.9118 46.3333H99.3235M49.9118 46.3333V92.1667M0.5 46.3333V92.1667M99.3235 0.5V46.3333M99.3235 0.5H148.735M99.3235 46.3333H148.735M99.3235 46.3333V92.1667M148.735 0.5V46.3333M148.735 0.5H198.147M148.735 46.3333H198.147M148.735 46.3333V92.1667M198.147 0.5V46.3333M198.147 0.5H247.559M198.147 46.3333H247.559M198.147 46.3333V92.1667M247.559 0.5V46.3333M247.559 0.5H296.971M247.559 46.3333H296.971M247.559 46.3333V92.1667M296.971 0.5V46.3333M296.971 0.5H346.382M296.971 46.3333H346.382M296.971 46.3333V92.1667M346.382 0.5V46.3333M346.382 0.5H395.794M346.382 46.3333H395.794M346.382 46.3333V92.1667M395.794 0.5V46.3333M395.794 0.5H445.206M395.794 46.3333H445.206M395.794 46.3333V92.1667M445.206 0.5V46.3333M445.206 0.5H494.618M445.206 46.3333H494.618M445.206 46.3333V92.1667M494.618 0.5V46.3333M494.618 0.5H544.029M494.618 46.3333H544.029M494.618 46.3333V92.1667M544.029 0.5V46.3333M544.029 0.5H593.441M544.029 46.3333H593.441M544.029 46.3333V92.1667M593.441 0.5V46.3333M593.441 0.5H642.853M593.441 46.3333H642.853M593.441 46.3333V92.1667M642.853 0.5V46.3333M642.853 0.5H692.265M642.853 46.3333H692.265M642.853 46.3333V92.1667M692.265 0.5V46.3333M692.265 0.5H741.677M692.265 46.3333H741.677M692.265 46.3333V92.1667M741.677 0.5V46.3333M741.677 0.5H791.088M741.677 46.3333H791.088M741.677 46.3333V92.1667M791.088 0.5V46.3333M791.088 0.5H840.5V46.3333M791.088 46.3333H840.5M791.088 46.3333V92.1667M840.5 46.3333V92.1667M49.9118 92.1667H0.5M49.9118 92.1667H99.3235M49.9118 92.1667V138M0.5 92.1667V138M99.3235 92.1667H148.735M99.3235 92.1667V138M148.735 92.1667H198.147M148.735 92.1667V138M198.147 92.1667H247.559M198.147 92.1667V138M247.559 92.1667H296.971M247.559 92.1667V138M296.971 92.1667H346.382M296.971 92.1667V138M346.382 92.1667H395.794M346.382 92.1667V138M395.794 92.1667H445.206M395.794 92.1667V138M445.206 92.1667H494.618M445.206 92.1667V138M494.618 92.1667H544.029M494.618 92.1667V138M544.029 92.1667H593.441M544.029 92.1667V138M593.441 92.1667H642.853M593.441 92.1667V138M642.853 92.1667H692.265M642.853 92.1667V138M692.265 92.1667H741.677M692.265 92.1667V138M741.677 92.1667H791.088M741.677 92.1667V138M791.088 92.1667H840.5M791.088 92.1667V138M840.5 92.1667V138M49.9118 138H0.5M49.9118 138H99.3235M49.9118 138V183.833M0.5 138V183.833M99.3235 138H148.735M99.3235 138V183.833M148.735 138H198.147M148.735 138V183.833M198.147 138H247.559M198.147 138V183.833M247.559 138H296.971M247.559 138V183.833M296.971 138H346.382M296.971 138V183.833M346.382 138H395.794M346.382 138V183.833M395.794 138H445.206M395.794 138V183.833M445.206 138H494.618M445.206 138V183.833M494.618 138H544.029M494.618 138V183.833M544.029 138H593.441M544.029 138V183.833M593.441 138H642.853M593.441 138V183.833M642.853 138H692.265M642.853 138V183.833M692.265 138H741.677M692.265 138V183.833M741.677 138H791.088M741.677 138V183.833M791.088 138H840.5M791.088 138V183.833M840.5 138V183.833M49.9118 183.833H0.5M49.9118 183.833H99.3235M49.9118 183.833V229.667M0.5 183.833V229.667M99.3235 183.833H148.735M99.3235 183.833V229.667M148.735 183.833H198.147M148.735 183.833V229.667M198.147 183.833H247.559M198.147 183.833V229.667M247.559 183.833H296.971M247.559 183.833V229.667M296.971 183.833H346.382M296.971 183.833V229.667M346.382 183.833H395.794M346.382 183.833V229.667M395.794 183.833H445.206M395.794 183.833V229.667M445.206 183.833H494.618M445.206 183.833V229.667M494.618 183.833H544.029M494.618 183.833V229.667M544.029 183.833H593.441M544.029 183.833V229.667M593.441 183.833H642.853M593.441 183.833V229.667M642.853 183.833H692.265M642.853 183.833V229.667M692.265 183.833H741.677M692.265 183.833V229.667M741.677 183.833H791.088M741.677 183.833V229.667M791.088 183.833H840.5M791.088 183.833V229.667M840.5 183.833V229.667M49.9118 229.667H0.5M49.9118 229.667H99.3235M49.9118 229.667V275.5M0.5 229.667V275.5M99.3235 229.667H148.735M99.3235 229.667V275.5M148.735 229.667H198.147M148.735 229.667V275.5M198.147 229.667H247.559M198.147 229.667V275.5M247.559 229.667H296.971M247.559 229.667V275.5M296.971 229.667H346.382M296.971 229.667V275.5M346.382 229.667H395.794M346.382 229.667V275.5M395.794 229.667H445.206M395.794 229.667V275.5M445.206 229.667H494.618M445.206 229.667V275.5M494.618 229.667H544.029M494.618 229.667V275.5M544.029 229.667H593.441M544.029 229.667V275.5M593.441 229.667H642.853M593.441 229.667V275.5M642.853 229.667H692.265M642.853 229.667V275.5M692.265 229.667H741.677M692.265 229.667V275.5M741.677 229.667H791.088M741.677 229.667V275.5M791.088 229.667H840.5M791.088 229.667V275.5M840.5 229.667V275.5M49.9118 275.5H0.5M49.9118 275.5H99.3235M49.9118 275.5V321.333M0.5 275.5V321.333M99.3235 275.5H148.735M99.3235 275.5V321.333M148.735 275.5H198.147M148.735 275.5V321.333M198.147 275.5H247.559M198.147 275.5V321.333M247.559 275.5H296.971M247.559 275.5V321.333M296.971 275.5H346.382M296.971 275.5V321.333M346.382 275.5H395.794M346.382 275.5V321.333M395.794 275.5H445.206M395.794 275.5V321.333M445.206 275.5H494.618M445.206 275.5V321.333M494.618 275.5H544.029M494.618 275.5V321.333M544.029 275.5H593.441M544.029 275.5V321.333M593.441 275.5H642.853M593.441 275.5V321.333M642.853 275.5H692.265M642.853 275.5V321.333M692.265 275.5H741.677M692.265 275.5V321.333M741.677 275.5H791.088M741.677 275.5V321.333M791.088 275.5H840.5M791.088 275.5V321.333M840.5 275.5V321.333M49.9118 321.333H0.5M49.9118 321.333H99.3235M49.9118 321.333V367.167M0.5 321.333V367.167M99.3235 321.333H148.735M99.3235 321.333V367.167M148.735 321.333H198.147M148.735 321.333V367.167M198.147 321.333H247.559M198.147 321.333V367.167M247.559 321.333H296.971M247.559 321.333V367.167M296.971 321.333H346.382M296.971 321.333V367.167M346.382 321.333H395.794M346.382 321.333V367.167M395.794 321.333H445.206M395.794 321.333V367.167M445.206 321.333H494.618M445.206 321.333V367.167M494.618 321.333H544.029M494.618 321.333V367.167M544.029 321.333H593.441M544.029 321.333V367.167M593.441 321.333H642.853M593.441 321.333V367.167M642.853 321.333H692.265M642.853 321.333V367.167M692.265 321.333H741.677M692.265 321.333V367.167M741.677 321.333H791.088M741.677 321.333V367.167M791.088 321.333H840.5M791.088 321.333V367.167M840.5 321.333V367.167M49.9118 367.167H0.5M49.9118 367.167H99.3235M49.9118 367.167V413M0.5 367.167V413M99.3235 367.167H148.735M99.3235 367.167V413M148.735 367.167H198.147M148.735 367.167V413M198.147 367.167H247.559M198.147 367.167V413M247.559 367.167H296.971M247.559 367.167V413M296.971 367.167H346.382M296.971 367.167V413M346.382 367.167H395.794M346.382 367.167V413M395.794 367.167H445.206M395.794 367.167V413M445.206 367.167H494.618M445.206 367.167V413M494.618 367.167H544.029M494.618 367.167V413M544.029 367.167H593.441M544.029 367.167V413M593.441 367.167H642.853M593.441 367.167V413M642.853 367.167H692.265M642.853 367.167V413M692.265 367.167H741.677M692.265 367.167V413M741.677 367.167H791.088M741.677 367.167V413M791.088 367.167H840.5M791.088 367.167V413M840.5 367.167V413M49.9118 413H0.5M49.9118 413H99.3235M49.9118 413V458.833M0.5 413V458.833M99.3235 413H148.735M99.3235 413V458.833M148.735 413H198.147M148.735 413V458.833M198.147 413H247.559M198.147 413V458.833M247.559 413H296.971M247.559 413V458.833M296.971 413H346.382M296.971 413V458.833M346.382 413H395.794M346.382 413V458.833M395.794 413H445.206M395.794 413V458.833M445.206 413H494.618M445.206 413V458.833M494.618 413H544.029M494.618 413V458.833M544.029 413H593.441M544.029 413V458.833M593.441 413H642.853M593.441 413V458.833M642.853 413H692.265M642.853 413V458.833M692.265 413H741.677M692.265 413V458.833M741.677 413H791.088M741.677 413V458.833M791.088 413H840.5M791.088 413V458.833M840.5 413V458.833M49.9118 458.833H0.5M49.9118 458.833H99.3235M49.9118 458.833V504.667M0.5 458.833V504.667M99.3235 458.833H148.735M99.3235 458.833V504.667M148.735 458.833H198.147M148.735 458.833V504.667M198.147 458.833H247.559M198.147 458.833V504.667M247.559 458.833H296.971M247.559 458.833V504.667M296.971 458.833H346.382M296.971 458.833V504.667M346.382 458.833H395.794M346.382 458.833V504.667M395.794 458.833H445.206M395.794 458.833V504.667M445.206 458.833H494.618M445.206 458.833V504.667M494.618 458.833H544.029M494.618 458.833V504.667M544.029 458.833H593.441M544.029 458.833V504.667M593.441 458.833H642.853M593.441 458.833V504.667M642.853 458.833H692.265M642.853 458.833V504.667M692.265 458.833H741.677M692.265 458.833V504.667M741.677 458.833H791.088M741.677 458.833V504.667M791.088 458.833H840.5M791.088 458.833V504.667M840.5 458.833V504.667M49.9118 504.667H0.5M49.9118 504.667H99.3235M49.9118 504.667V550.5M0.5 504.667V550.5H49.9118M99.3235 504.667H148.735M99.3235 504.667V550.5M148.735 504.667H198.147M148.735 504.667V550.5M198.147 504.667H247.559M198.147 504.667V550.5M247.559 504.667H296.971M247.559 504.667V550.5M296.971 504.667H346.382M296.971 504.667V550.5M346.382 504.667H395.794M346.382 504.667V550.5M395.794 504.667H445.206M395.794 504.667V550.5M445.206 504.667H494.618M445.206 504.667V550.5M494.618 504.667H544.029M494.618 504.667V550.5M544.029 504.667H593.441M544.029 504.667V550.5M593.441 504.667H642.853M593.441 504.667V550.5M642.853 504.667H692.265M642.853 504.667V550.5M692.265 504.667H741.677M692.265 504.667V550.5M741.677 504.667H791.088M741.677 504.667V550.5M791.088 504.667H840.5M791.088 504.667V550.5M840.5 504.667V550.5H791.088M49.9118 550.5H99.3235M99.3235 550.5H148.735M148.735 550.5H198.147M198.147 550.5H247.559M247.559 550.5H296.971M296.971 550.5H346.382M346.382 550.5H395.794M395.794 550.5H445.206M445.206 550.5H494.618M494.618 550.5H544.029M544.029 550.5H593.441M593.441 550.5H642.853M642.853 550.5H692.265M692.265 550.5H741.677M741.677 550.5H791.088" stroke="url(#paint5_radial_2_544)" stroke-opacity="0.08"/>
<defs>
<linearGradient id="paint0_linear_2_544" x1="173.5" y1="73.5684" x2="173.5" y2="112.603" gradientUnits="userSpaceOnUse">
<stop stop-color="black" stop-opacity="0"/>
<stop offset="1" stop-color="black"/>
</linearGradient>
<linearGradient id="paint1_linear_2_544" x1="124.5" y1="229.5" x2="124.5" y2="275.5" gradientUnits="userSpaceOnUse">
<stop stop-color="black" stop-opacity="0"/>
<stop offset="1" stop-color="black"/>
</linearGradient>
<linearGradient id="paint2_linear_2_544" x1="222.5" y1="412.5" x2="222.5" y2="458.578" gradientUnits="userSpaceOnUse">
<stop stop-color="black" stop-opacity="0"/>
<stop offset="1" stop-color="black"/>
</linearGradient>
<linearGradient id="paint3_linear_2_544" x1="618.5" y1="183.5" x2="618.5" y2="229.5" gradientUnits="userSpaceOnUse">
<stop stop-color="black" stop-opacity="0"/>
<stop offset="1" stop-color="black"/>
</linearGradient>
<linearGradient id="paint4_linear_2_544" x1="371.5" y1="229.5" x2="371.5" y2="275.5" gradientUnits="userSpaceOnUse">
<stop stop-color="black" stop-opacity="0"/>
<stop offset="1" stop-color="black"/>
</linearGradient>
<radialGradient id="paint5_radial_2_544" cx="0" cy="0" r="1" gradientUnits="userSpaceOnUse" gradientTransform="translate(420.5 290.19) rotate(90) scale(259.722 420.634)">
<stop stop-color="black"/>
<stop offset="1" stop-color="black" stop-opacity="0"/>
</radialGradient>
</defs>
</svg>